<svg width="56" height="56" viewBox="0 0 56 56" fill="none" xmlns="http://www.w3.org/2000/svg">
<path fill-rule="evenodd" clip-rule="evenodd" d="M0 56V0H56V56H0Z" fill="white"/>
<path fill-rule="evenodd" clip-rule="evenodd" d="M42.4163 12.6329L41.5846 12.0312L28 2.15283L18.0772 9.36477L14.4155 12.0312L0.823364 21.9023L6.015 37.8784L11.2069 53.847H18.0769H27.9997H42.4163H44.7931L49.9847 37.8784L55.1764 21.9023L42.4163 12.6329ZM40.218 13.9254L42.4163 15.5224L51.9679 22.4595L42.4163 24.1974L30.8445 26.2993L28.3861 5.32476L40.218 13.9254ZM15.7525 13.9254L18.0772 12.2319L27.6511 5.28002L24.8807 26.3662L18.0772 25.0664L4.09174 22.3999L15.7525 13.9254ZM8.18405 37.2099L3.54178 22.8976L18.0769 29.4259L23.0681 31.6615L18.0769 40.8862L12.6476 50.9206L8.18405 37.2099ZM42.4163 51.5891H27.9928H18.0772H13.0936L18.0772 46.2118L28.0671 35.4645L42.4163 51.2253L42.7432 51.5891H42.4163ZM47.7864 37.2099L43.2408 51.1733L42.4163 49.6359L32.8576 31.9294L42.4163 27.5843L52.3839 23.0536L47.7864 37.2099Z" fill="#2C3038"/>
</svg>
