<svg width="56" height="56" viewBox="0 0 56 56" fill="none" xmlns="http://www.w3.org/2000/svg">
<path d="M26.5344 0.465663C27.4859 0.129772 28.5141 0.129772 29.4656 0.465663L53.0906 8.84838C54.8297 9.46854 56 11.1234 56 12.9718V43.0281C56 44.8765 54.8297 46.5281 53.0906 47.1515L29.4656 55.5296C28.5141 55.8687 27.4859 55.8687 26.5344 55.5296L2.91156 47.1515C1.16594 46.5281 0 44.8765 0 43.0281V12.9718C0 11.1234 1.16594 9.46854 2.91156 8.84838L26.5344 0.465663ZM28.875 2.11526C28.3062 1.91291 27.6938 1.91291 27.0266 2.11526L3.49672 10.4978C2.95969 10.6881 2.51453 10.9484 2.20828 11.4953L28 21.8093L53.7906 11.4953C53.4844 10.9484 53.0359 10.6881 52.5 10.4978L28.875 2.11526ZM3.49672 45.5L27.125 53.889C27.125 53.889 27.0266 53.889 27.125 53.889V23.3406L1.75 13.1906V43.0281C1.75 44.1437 2.45 45.1281 3.49672 45.5ZM28.875 53.889C28.7766 53.889 28.875 53.889 28.875 53.889L52.5 45.5C53.55 45.1281 54.25 44.1437 54.25 43.0281V13.1906L28.875 23.3406V53.889Z" fill="#2C3038"/>
</svg>
