<svg width="117" height="45" viewBox="0 0 117 45" fill="none" xmlns="http://www.w3.org/2000/svg">
<path d="M58.4995 0.688354C26.4085 0.688354 0.684113 10.366 0.684113 22.4996C0.684113 34.5593 26.6204 44.3117 58.4995 44.3117C90.3794 44.3117 116.316 34.5266 116.316 22.4996C116.316 10.4726 90.3794 0.688354 58.4995 0.688354Z" fill="white"/>
<path d="M81.2727 27.12C81.2882 27.2199 81.4185 27.3156 81.5447 27.3608C81.5913 27.3764 81.614 27.4077 81.5654 27.5138C81.2055 28.2902 80.8744 28.7377 80.4232 29.4123C80.0079 30.0356 79.5403 30.5218 78.9742 30.9896C78.1203 31.7005 76.9343 32.4744 75.9539 31.9542C75.5185 31.7268 75.33 31.1136 75.3384 30.6171C75.3591 29.2212 75.9764 27.7881 77.1162 26.3796C78.5057 24.6585 80.0418 23.7658 81.05 24.2537C82.093 24.7542 81.7601 25.9692 81.293 26.9228C81.2568 26.9967 81.2568 27.0591 81.2723 27.1195L81.2727 27.12ZM92.4651 16.2426C92.5401 16.1094 92.4611 16.0121 92.2939 16.0121C91.4227 16.0121 90.2797 16.0141 89.372 16.0141C89.1558 16.0141 89.0441 16.04 88.9422 16.243C88.6071 16.8888 84.524 23.0456 83.764 24.2411C83.6357 24.4233 83.4795 24.3977 83.4614 24.1891C83.3844 23.479 82.7749 22.6627 81.8145 22.2721C81.0826 21.9734 80.3672 21.9193 79.6233 22.0187C78.2803 22.2003 77.0839 22.913 76.032 23.7168C74.4466 24.9294 73.0787 26.5011 71.313 27.6624C70.3491 28.2945 69.0291 28.8458 68.1458 28.0229C67.3464 27.2772 67.4368 25.6212 68.6598 24.3403C68.7886 24.2061 68.9432 24.3194 68.9189 24.4386C68.8036 25.0178 68.9447 25.5939 69.3822 25.9978C69.9158 26.4791 70.6794 26.5334 71.3331 26.2122C72.1043 25.8277 72.5575 25.0853 72.6896 24.2427C72.8939 22.9356 71.8939 21.7827 70.6425 21.6902C69.626 21.6184 68.6511 21.9743 67.7012 22.763C67.2249 23.1605 66.9545 23.4542 66.5426 24.0435C66.4423 24.1887 66.2881 24.2032 66.2928 23.9888C66.3393 22.3154 65.652 21.3738 64.2769 21.3431C63.2094 21.3171 62.0692 21.9001 61.1803 22.6131C60.206 23.4003 59.354 24.4437 58.4407 25.424C58.3269 25.5447 58.2281 25.539 58.196 25.3048C58.1702 24.196 57.8915 23.1221 57.3814 22.3594C57.201 22.0941 56.821 21.9629 56.5018 22.1419C56.3544 22.2231 55.8418 22.4603 55.4684 22.7627C55.2833 22.9162 55.2109 23.1384 55.2931 23.4232C55.7854 25.0797 55.6773 26.9631 55.0092 28.5538C54.3957 30.0108 53.2037 31.3248 51.8026 31.7695C50.8796 32.064 49.9201 31.9199 49.3263 31.0966C48.5109 29.9604 48.8402 27.9843 50.0558 26.3435C51.1285 24.8987 52.6803 23.9809 54.228 23.39C54.41 23.3192 54.4478 23.2016 54.396 23.0461C54.3123 22.7901 54.1778 22.4414 54.1235 22.2823C53.9813 21.902 53.5839 21.8406 53.0985 21.8936C51.9739 22.0253 50.9594 22.4129 49.9574 22.9528C47.3333 24.3665 46.0176 27.1027 45.4411 28.5665C45.1634 29.2698 44.926 29.7084 44.6192 30.0974C44.2055 30.6205 43.6862 31.0968 42.7367 31.9357C42.6508 32.0128 42.5867 32.173 42.6591 32.3223C42.7558 32.5242 43.2497 33.2259 43.389 33.2885C43.5437 33.365 43.7231 33.2572 43.795 33.2062C44.4594 32.7531 45.2543 32.0348 45.6433 31.5477C45.7799 31.3807 45.92 31.4509 45.9924 31.7043C46.3555 33.0074 47.3061 34.0714 48.6205 34.5165C51.0266 35.3329 53.5222 34.1512 55.4059 32.0941C56.6031 30.7866 57.0351 29.9457 57.494 29.3741C58.2717 28.4047 59.8058 26.236 61.6329 24.8436C62.3029 24.3301 63.0958 23.9384 63.4945 24.1986C63.8146 24.4072 63.9181 24.8921 63.4046 25.8316C61.5417 29.2541 58.8008 33.2752 58.2981 34.2503C58.2061 34.4194 58.2878 34.5526 58.4626 34.5526C59.4374 34.5477 60.4037 34.5502 61.2886 34.5502C61.436 34.545 61.5017 34.4753 61.5757 34.3707C63.0053 32.1192 64.3507 29.9763 65.7928 27.7608C65.8735 27.6302 65.9479 27.7295 65.951 27.7868C65.982 28.3008 66.1061 29.0039 66.4097 29.4656C66.9549 30.3191 67.7273 30.6858 68.5841 30.6914C69.2658 30.7019 69.6107 30.5951 70.3458 30.3189C70.944 30.0957 71.4241 29.8027 71.7927 29.5377C72.0078 29.3868 72.0456 29.6391 72.0404 29.6776C71.7094 31.465 72.118 33.5828 73.8837 34.4609C75.9967 35.5091 78.318 34.0358 79.6537 32.7058C79.7846 32.5779 79.9247 32.5914 79.9381 32.8676C79.9691 33.3755 80.1946 33.978 80.6122 34.3997C81.7315 35.5299 83.9902 35.082 86.257 33.3168C87.7123 32.1866 89.2351 30.5899 90.6106 28.8991C90.6623 28.8336 90.6996 28.7285 90.6003 28.6218C90.3908 28.4012 90.0878 28.1488 89.8801 27.9545C89.7854 27.8733 89.6464 27.8967 89.5667 27.9573C88.1567 29.3064 86.8875 30.845 85.0532 32.1173C84.4345 32.5518 83.4485 32.9022 83.0057 32.299C82.8329 32.0648 82.8526 31.7411 83.0212 31.3161C83.556 29.9742 92.0236 17.0037 92.4632 16.2387" fill="#2C3038"/>
<path d="M52.6263 17.8077C52.6625 18.0002 52.737 18.0377 52.8239 18.0216C53.2552 17.9347 53.7272 17.5777 54.0067 17.164C54.2611 16.7888 54.3805 16.2475 54.1277 16.0306C53.9022 15.8355 53.5351 15.8906 53.2629 16.1325C52.7209 16.6143 52.5563 17.2979 52.6262 17.8081L52.6263 17.8077ZM31.0446 34.504C27.8874 34.5248 25.1059 32.5631 24.7867 29.1648C24.6093 27.2817 25.1384 25.6035 26.1975 24.2208C27.1374 22.9888 28.7277 21.9653 30.0738 21.7152C30.5118 21.6346 31.1004 21.684 31.3437 21.9775C31.7254 22.4244 31.6157 22.9154 31.234 23.1112C30.207 23.6388 28.9713 24.5419 28.3598 25.7751C27.8639 26.7817 27.7637 27.9947 28.5212 29.1504C29.7891 31.0763 33.3233 31.1293 36.6094 28.0578C37.4232 27.3061 38.1515 26.5838 38.8918 25.7283C40.3391 24.0633 40.8205 23.4566 42.7444 20.7717C42.7651 20.7405 42.7754 20.6999 42.7651 20.6801C42.7496 20.6437 42.7238 20.6385 42.6664 20.6333C41.382 20.6697 40.2623 21.0543 39.1739 21.8726C38.8605 22.1026 38.4094 22.0703 38.2119 21.7675C37.9921 21.4251 38.1499 20.9794 38.5114 20.7278C40.2622 19.5027 42.1748 19.2805 44.128 18.9488C44.1264 18.9488 44.2635 18.954 44.3752 18.8063C45.177 17.771 45.7825 16.8371 46.6372 15.7901C47.4984 14.7278 48.6108 13.7523 49.4608 13.0196C50.6471 11.9932 51.408 11.6479 52.1813 11.2245C52.385 11.1174 52.1554 10.9894 52.0934 10.9894C47.7762 10.173 43.2889 9.11669 39.0015 10.7136C36.0321 11.8284 34.7309 14.1975 35.3568 15.7805C35.802 16.9034 37.2699 17.086 38.6442 16.4094C39.7856 15.8467 40.8418 14.9399 41.5906 13.7725C42.0095 13.1242 42.8922 13.592 42.4153 14.7177C41.1606 17.6845 38.7638 20.0379 35.8442 20.1373C33.3595 20.2184 31.7563 18.3793 31.7616 16.1104C31.7719 11.6354 36.7235 8.68751 41.9275 8.24682C48.1945 7.72574 54.1304 9.4053 60.3529 10.1647C65.1205 10.7455 69.6914 10.7576 74.4835 9.65006C75.0499 9.52623 75.4474 9.88991 75.4105 10.4656C75.3639 11.2977 74.7231 12.0991 73.1449 12.9651C71.3499 13.9556 69.4721 14.2561 67.5109 14.2722C62.7686 14.3138 58.3512 12.4521 53.7799 11.4528C53.7851 11.6542 53.8378 11.894 53.6703 12.0211C51.1382 13.9001 48.8494 15.8083 47.3165 18.4885C47.2648 18.5504 47.2907 18.6092 47.3822 18.6029C48.7131 18.5317 49.91 18.4973 51.1525 18.3974C51.3697 18.3766 51.3779 18.3245 51.3588 18.1653C51.2486 17.2415 51.517 16.1881 52.3247 15.4635C53.1514 14.7178 54.1864 14.633 54.8726 15.1701C55.6526 15.7816 55.5836 16.8815 55.157 17.7063C54.7226 18.5432 54.0051 18.9908 53.3166 19.2081C53.3166 19.2081 53.1718 19.2394 53.1935 19.3715C53.2194 19.5828 54.1587 20.1058 54.239 20.2451C54.3166 20.3778 54.2752 20.5834 54.134 20.741C54.0348 20.8555 53.8791 20.9627 53.68 20.959C53.5192 20.9558 53.4214 20.8997 53.2156 20.7879C52.7947 20.5584 52.2686 20.1812 51.9176 19.7364C51.7982 19.586 51.7371 19.583 51.4387 19.5996C50.0941 19.6777 47.9977 19.8816 46.5772 20.0601C46.2328 20.1017 46.1821 20.1677 46.1113 20.2879C43.8465 24.0453 41.4284 28.0971 38.7734 30.8099C35.9257 33.7186 33.5586 34.4844 31.0458 34.5042" fill="#2C3038"/>
<path d="M58.4983 4.25499C28.9755 4.25499 5.04499 12.4629 5.04499 22.5066C5.04499 32.551 28.9755 40.7596 58.4983 40.7596C88.0207 40.7596 111.95 32.551 111.95 22.5066C111.95 12.4629 88.0207 4.25499 58.4983 4.25499ZM58.4983 42.4137C27.9008 42.4137 3.09702 33.501 3.09702 22.5066C3.09702 11.5104 27.9008 2.59937 58.4983 2.59937C89.0931 2.59937 113.895 11.5104 113.895 22.5066C113.895 33.501 89.0931 42.4137 58.4983 42.4137Z" fill="#2C3038"/>
</svg>
