<svg width="48" height="48" viewBox="0 0 48 48" fill="none" xmlns="http://www.w3.org/2000/svg">
<rect width="48" height="48" rx="2" fill="white"/>
<path d="M4.5 37.6035H43.9224V44.0001H4.5V37.6035Z" fill="#2C3038"/>
<path d="M24.0468 4.61365H30.7074L33.9667 26.2726L37.2985 4.61365H43.8864V34.2068H39.4966V11.9202L35.7967 34.2068H32.0033L28.4331 11.9202V34.1634H24.0468V4.61365Z" fill="#2C3038"/>
<path d="M14.9179 14.0099H19.4194V11.92C19.4194 9.87289 19.4194 4 11.8893 4C4.52536 4 4.52536 10.7071 4.52536 11.92C4.52536 12.566 4.52536 26.1243 4.52536 27.3011C4.52536 31.7916 6.16791 34.7337 10.4237 34.7624C12.9401 34.7661 14.6943 33.1921 15.066 32.5929V34.1632L19.4194 34.2064V18.1717H12.3369V21.731H14.9179C14.9179 21.731 14.9179 25.8786 14.9179 26.4167C14.9179 28.7921 14.1744 30.409 11.9615 30.409C9.74496 30.409 9.04108 28.6871 9.04108 26.4167C9.04108 25.0089 9.04108 12.7971 9.04108 11.92C9.04108 10.743 9.04107 8.05733 11.9615 8.05733C14.9179 8.05733 14.9179 10.7864 14.9179 11.92C14.9179 12.9053 14.9179 14.0099 14.9179 14.0099Z" fill="#2C3038"/>
</svg>
