<svg width="156" height="59" viewBox="0 0 156 59" fill="none" xmlns="http://www.w3.org/2000/svg">
<path d="M78.158 0.914047C35.2829 0.914047 0.914062 13.7655 0.914062 29.8782C0.914062 45.8928 35.5661 58.8435 78.158 58.8435C120.751 58.8435 155.403 45.8493 155.403 29.8782C155.403 13.907 120.751 0.914047 78.158 0.914047Z" fill="#202020"/>
<path d="M108.584 36.0137C108.605 36.1464 108.779 36.2735 108.947 36.3336C109.01 36.3543 109.04 36.3958 108.975 36.5367C108.494 37.5677 108.052 38.162 107.449 39.0578C106.894 39.8855 106.269 40.5312 105.513 41.1523C104.372 42.0964 102.788 43.1241 101.478 42.4333C100.896 42.1313 100.644 41.317 100.656 40.6578C100.683 38.804 101.508 36.9009 103.031 35.0305C104.887 32.745 106.94 31.5595 108.286 32.2075C109.68 32.8721 109.235 34.4855 108.611 35.7519C108.563 35.85 108.563 35.9329 108.584 36.0131L108.584 36.0137ZM123.538 21.5691C123.638 21.3922 123.532 21.263 123.309 21.263C122.145 21.263 120.618 21.2657 119.405 21.2657C119.116 21.2657 118.967 21.3002 118.831 21.5696C118.383 22.4273 112.928 30.6031 111.912 32.1908C111.741 32.4326 111.532 32.3987 111.508 32.1216C111.405 31.1787 110.591 30.0947 109.308 29.576C108.33 29.1794 107.374 29.1075 106.38 29.2395C104.586 29.4806 102.988 30.4271 101.582 31.4946C99.464 33.1048 97.6365 35.1919 95.2774 36.734C93.9896 37.5735 92.226 38.3056 91.0459 37.2127C89.9779 36.2226 90.0986 34.0234 91.7327 32.3225C91.9047 32.1442 92.1112 32.2948 92.0788 32.453C91.9247 33.2222 92.1133 33.9872 92.6978 34.5236C93.4107 35.1627 94.4309 35.2348 95.3042 34.8082C96.3346 34.2976 96.9401 33.3118 97.1166 32.1928C97.3895 30.4571 96.0535 28.9262 94.3816 28.8033C93.0235 28.708 91.721 29.1805 90.4519 30.228C89.8156 30.7558 89.4543 31.1458 88.9039 31.9284C88.7699 32.1212 88.5639 32.1404 88.5702 31.8558C88.6323 29.6334 87.7141 28.3831 85.8769 28.3424C84.4507 28.3078 82.9273 29.082 81.7397 30.0288C80.438 31.0742 79.2997 32.4597 78.0794 33.7616C77.9274 33.9219 77.7954 33.9142 77.7526 33.6033C77.718 32.1309 77.3456 30.7047 76.6643 29.692C76.4231 29.3396 75.9155 29.1654 75.4891 29.4031C75.2921 29.5109 74.6072 29.826 74.1084 30.2275C73.861 30.4314 73.7643 30.7264 73.8741 31.1046C74.5319 33.3044 74.3875 35.8054 73.4948 37.9178C72.6752 39.8526 71.0827 41.5974 69.2107 42.188C67.9775 42.5791 66.6956 42.3878 65.9022 41.2944C64.8128 39.7856 65.2527 37.1615 66.8768 34.9826C68.31 33.064 70.3833 31.8453 72.4511 31.0605C72.6943 30.9665 72.7447 30.8104 72.6756 30.6038C72.5637 30.2639 72.384 29.8009 72.3115 29.5896C72.1215 29.0845 71.5906 29.0029 70.9421 29.0734C69.4396 29.2482 68.0842 29.763 66.7453 30.4799C63.2394 32.3573 61.4817 35.9908 60.7114 37.9347C60.3404 38.8685 60.0233 39.451 59.6134 39.9675C59.0607 40.6622 58.3668 41.2947 57.0982 42.4088C56.9835 42.5111 56.8979 42.7238 56.9946 42.9221C57.1238 43.1902 57.7837 44.1221 57.9698 44.2052C58.1764 44.3068 58.4161 44.1637 58.5121 44.096C59.3998 43.4942 60.4619 42.5404 60.9816 41.8935C61.164 41.6717 61.3513 41.765 61.448 42.1015C61.9331 43.8319 63.2031 45.2448 64.9593 45.8359C68.1739 46.92 71.5081 45.3509 74.0249 42.6191C75.6244 40.8828 76.2016 39.7661 76.8147 39.0071C77.8537 37.7198 79.9032 34.8399 82.3444 32.9909C83.2396 32.3089 84.2989 31.7888 84.8316 32.1343C85.2593 32.4114 85.3975 33.0552 84.7114 34.3028C82.2225 38.8477 78.5606 44.1876 77.889 45.4824C77.766 45.707 77.8752 45.8838 78.1087 45.8838C79.4111 45.8774 80.7021 45.8806 81.8844 45.8806C82.0813 45.8737 82.1691 45.7811 82.2679 45.6423C84.178 42.6524 85.9754 39.8068 87.9022 36.8647C88.0099 36.6913 88.1094 36.8232 88.1135 36.8992C88.155 37.5818 88.3208 38.5154 88.7264 39.1285C89.4548 40.2619 90.4868 40.749 91.6314 40.7565C92.5422 40.7703 93.0031 40.6286 93.9852 40.2617C94.7844 39.9653 95.4259 39.5763 95.9183 39.2243C96.2057 39.0239 96.2562 39.359 96.2493 39.4101C95.8071 41.7837 96.353 44.5961 98.7119 45.7621C101.535 47.1541 104.636 45.1976 106.421 43.4315C106.596 43.2615 106.783 43.2794 106.801 43.6463C106.842 44.3207 107.144 45.1209 107.701 45.6809C109.197 47.1817 112.215 46.5869 115.243 44.2428C117.188 42.742 119.222 40.6216 121.06 38.3763C121.129 38.2893 121.179 38.1497 121.046 38.0081C120.766 37.7151 120.361 37.38 120.084 37.1219C119.957 37.0142 119.772 37.0452 119.665 37.1256C117.781 38.9172 116.086 40.9603 113.635 42.6499C112.808 43.2269 111.491 43.6923 110.899 42.8911C110.669 42.5802 110.695 42.1503 110.92 41.586C111.635 39.804 122.948 22.5799 123.535 21.564" fill="#CE2329"/>
<path d="M70.3111 23.6475C70.3595 23.9031 70.459 23.9529 70.5751 23.9315C71.1513 23.8161 71.782 23.3421 72.1553 22.7927C72.4953 22.2945 72.6548 21.5756 72.317 21.2876C72.0157 21.0285 71.5252 21.1017 71.1616 21.423C70.4374 22.0628 70.2176 22.9705 70.3109 23.648L70.3111 23.6475ZM41.477 45.8193C37.2588 45.8469 33.5426 43.2419 33.1162 38.7292C32.8792 36.2285 33.586 33.9999 35.0011 32.1638C36.2568 30.5277 38.3815 29.1686 40.18 28.8365C40.7652 28.7294 41.5515 28.795 41.8766 29.1847C42.3865 29.7782 42.24 30.4302 41.7301 30.6903C40.358 31.3909 38.707 32.5902 37.89 34.2278C37.2274 35.5645 37.0935 37.1754 38.1056 38.71C39.7996 41.2675 44.5214 41.3378 48.9118 37.2591C49.9991 36.2608 50.9721 35.3017 51.9612 34.1656C53.8949 31.9547 54.5381 31.149 57.1084 27.5836C57.1361 27.5421 57.1499 27.4882 57.1361 27.4619C57.1153 27.4136 57.0809 27.4066 57.0042 27.3997C55.2883 27.4481 53.7922 27.9588 52.3381 29.0455C51.9194 29.3508 51.3167 29.308 51.0528 28.9059C50.7592 28.4512 50.9699 27.8594 51.4529 27.5252C53.7921 25.8983 56.3474 25.6033 58.957 25.1629C58.9549 25.1629 59.1381 25.1698 59.2873 24.9735C60.3585 23.5987 61.1674 22.3586 62.3094 20.9683C63.46 19.5576 64.9462 18.2622 66.0818 17.2892C67.6668 15.9262 68.6834 15.4676 69.7165 14.9054C69.9887 14.7631 69.682 14.5932 69.5991 14.5932C63.8312 13.5091 57.8359 12.1063 52.1077 14.2269C48.1405 15.7074 46.402 18.8533 47.2382 20.9555C47.8331 22.4467 49.7943 22.6891 51.6303 21.7906C53.1553 21.0434 54.5665 19.8392 55.5669 18.289C56.1265 17.4281 57.3059 18.0492 56.6687 19.5441C54.9925 23.4839 51.7902 26.6091 47.8895 26.741C44.5698 26.8488 42.4279 24.4066 42.4349 21.3937C42.4487 15.451 49.0642 11.5364 56.017 10.9512C64.39 10.2592 72.3206 12.4896 80.6342 13.498C87.0039 14.2693 93.1108 14.2854 99.5132 12.8146C100.27 12.6502 100.801 13.1331 100.752 13.8976C100.69 15.0026 99.8334 16.0668 97.7248 17.2168C95.3266 18.5321 92.8178 18.9312 90.1975 18.9526C83.8617 19.0079 77.9597 16.5356 71.8523 15.2085C71.8593 15.4759 71.9298 15.7944 71.7059 15.9632C68.3229 18.4585 65.265 20.9925 63.217 24.5515C63.1479 24.6337 63.1824 24.7118 63.3047 24.7035C65.0829 24.6089 66.6819 24.5632 68.342 24.4306C68.6322 24.403 68.6432 24.3338 68.6176 24.1224C68.4705 22.8957 68.8291 21.4968 69.9082 20.5345C71.0126 19.5443 72.3955 19.4317 73.3122 20.1449C74.3544 20.957 74.2621 22.4175 73.6922 23.5128C73.1118 24.6242 72.1533 25.2186 71.2334 25.5072C71.2334 25.5072 71.0399 25.5487 71.0689 25.7242C71.1035 26.0047 72.3585 26.6993 72.4657 26.8843C72.5694 27.0605 72.5141 27.3335 72.3255 27.5428C72.1928 27.6948 71.9849 27.8371 71.7189 27.8323C71.504 27.828 71.3734 27.7536 71.0984 27.605C70.536 27.3003 69.8331 26.7993 69.3643 26.2087C69.2047 26.009 69.1231 26.005 68.7244 26.0271C66.928 26.1307 64.127 26.4016 62.2293 26.6386C61.7691 26.6938 61.7014 26.7815 61.6067 26.9411C58.5809 31.9307 55.3502 37.3113 51.803 40.9137C47.9984 44.7763 44.8358 45.7932 41.4785 45.8196" fill="#CE2329"/>
<path d="M78.1563 5.65048C38.7125 5.65048 6.74027 16.5501 6.74027 29.8876C6.74027 43.2261 38.7125 54.1266 78.1563 54.1266C117.599 54.1266 149.57 43.2261 149.57 29.8876C149.57 16.5501 117.599 5.65048 78.1563 5.65048ZM78.1563 56.3231C37.2766 56.3231 4.1377 44.4876 4.1377 29.8876C4.1377 15.2853 37.2766 3.4519 78.1563 3.4519C119.032 3.4519 152.169 15.2853 152.169 29.8876C152.169 44.4876 119.032 56.3231 78.1563 56.3231Z" fill="#CE2329"/>
</svg>
