<svg width="86" height="86" viewBox="0 0 86 86" fill="none" xmlns="http://www.w3.org/2000/svg">
<rect x="1" y="1" width="84" height="84" rx="15" stroke="#CE2329" stroke-width="2"/>
<path d="M42.4648 69.8789C54.3125 69.8789 62.1875 63.7617 62.1875 54.6914V54.6211C62.1875 47.7305 57.2656 43.3711 49.7422 42.668V42.457C55.6836 41.2266 60.3242 37.1133 60.3242 30.7852V30.7148C60.3242 22.7344 53.293 17.3906 42.3594 17.3906C31.707 17.3906 24.5703 23.1562 23.8672 31.9453L23.832 32.3672H33.5703L33.6055 32.0508C34.0273 28.1133 37.4023 25.5469 42.3594 25.5469C47.3516 25.5469 50.2695 28.0078 50.2695 32.1211V32.1914C50.2695 36.3047 46.8242 39.1172 41.5156 39.1172H35.8555V46.6758H41.6562C47.7734 46.6758 51.3945 49.3477 51.3945 54.1992V54.2695C51.3945 58.418 47.8789 61.3359 42.4297 61.3359C36.9453 61.3359 33.3594 58.6289 32.9023 55.0078L32.832 54.6211H22.707L22.7422 55.0781C23.4453 63.832 30.9688 69.8789 42.4648 69.8789Z" fill="#CE2329"/>
</svg>
