<svg width="56" height="56" viewBox="0 0 56 56" fill="none" xmlns="http://www.w3.org/2000/svg">
<path d="M5.25 43.8708H51.2428V51.3334H5.25V43.8708Z" fill="white"/>
<path d="M28.0545 5.38251H35.8253L39.6278 30.6513L43.5148 5.38251H51.2008V39.9078H46.0794V13.9068L41.7628 39.9078H37.3371L33.1718 13.9068V39.8572H28.0545V5.38251Z" fill="white"/>
<path d="M17.4043 16.345H22.656V13.9066C22.656 11.5184 22.656 4.66669 13.8708 4.66669C5.27962 4.66669 5.27962 12.4916 5.27962 13.9066C5.27962 14.6604 5.27962 30.4784 5.27962 31.8512C5.27962 37.0902 7.19593 40.5227 12.161 40.5562C15.0968 40.5605 17.1434 38.7242 17.577 38.0251V39.8571L22.656 39.9074V21.2004H14.3931V25.3529H17.4043C17.4043 25.3529 17.4043 30.1917 17.4043 30.8195C17.4043 33.5907 16.5368 35.4772 13.9551 35.4772C11.3691 35.4772 10.5479 33.4684 10.5479 30.8195C10.5479 29.1771 10.5479 14.9299 10.5479 13.9066C10.5479 12.5335 10.5479 9.40024 13.9551 9.40024C17.4043 9.40024 17.4043 12.5841 17.4043 13.9066C17.4043 15.0562 17.4043 16.345 17.4043 16.345Z" fill="white"/>
</svg>
