<svg width="28" height="32" viewBox="0 0 28 32" fill="none" xmlns="http://www.w3.org/2000/svg">
<path d="M13.2625 3.67882L24.5812 15.9976L13.2625 28.3188C13.0847 28.5112 12.9969 28.7544 12.9969 28.9976C12.9969 29.2671 13.1043 29.5356 13.3191 29.7319C13.7254 30.1069 14.356 30.0816 14.731 29.6763L26.731 16.6763C27.0865 16.2915 27.0865 15.7038 26.731 15.3188L14.731 2.31878C14.356 1.91353 13.7254 1.8881 13.3191 2.26312C12.9125 2.63882 12.8875 3.27257 13.2625 3.67882ZM14.7375 16.6813C15.093 16.2966 15.093 15.7088 14.7375 15.3238L2.7375 2.32382C2.3625 1.91857 1.73188 1.89313 1.32563 2.26816C0.917438 2.64122 0.894001 3.27503 1.26899 3.68128L12.5877 16L1.26625 28.3188C1.0885 28.5112 1.00063 28.7544 1.00063 28.9976C1.00063 29.2671 1.10806 29.5356 1.32288 29.7319C1.72913 30.1069 2.35975 30.0816 2.73475 29.6763L14.7375 16.6813Z" fill="white"/>
</svg>
