<svg width="47" height="46" viewBox="0 0 47 46" fill="none" xmlns="http://www.w3.org/2000/svg">
<path fill-rule="evenodd" clip-rule="evenodd" d="M35.8568 9.82809L35.1439 9.31237L23.5 0.845215L14.9947 7.02688L11.8561 9.31237L0.205719 17.7733L4.6557 31.4671L9.10592 45.1545H14.9945H23.4998H35.8568H37.8941L42.344 31.4671L46.794 17.7733L35.8568 9.82809ZM33.9725 10.936L35.8568 12.3048L44.0439 18.2509L35.8568 19.7406L25.9382 21.5422L23.8309 3.56401L33.9725 10.936ZM13.0021 10.936L14.9947 9.48445L23.2009 3.52566L20.8263 21.5995L14.9947 20.4854L3.00719 18.1999L13.0021 10.936ZM6.51488 30.8942L2.53579 18.6265L14.9945 24.2222L19.2726 26.1384L14.9945 34.0452L10.3408 42.6461L6.51488 30.8942ZM35.8568 43.2191H23.4938H14.9947H10.7231L14.9947 38.61L23.5575 29.398L35.8568 42.9074L36.137 43.2191H35.8568ZM40.4597 30.8942L36.5636 42.8628L35.8568 41.545L27.6636 26.368L35.8568 22.6436L44.4005 18.7602L40.4597 30.8942Z" fill="#F5F5F7"/>
</svg>
