<svg width="49" height="48" viewBox="0 0 49 48" fill="none" xmlns="http://www.w3.org/2000/svg">
<path d="M45.2286 34.2857C45.2286 35.3574 44.7379 36.4325 43.7399 37.4707C42.7387 38.5123 41.2562 39.4823 39.3704 40.312C35.6006 41.9707 30.3437 43.0143 24.5 43.0143C18.6563 43.0143 13.3994 41.9707 9.62961 40.312C7.74374 39.4823 6.26131 38.5123 5.26002 37.4707C4.26206 36.4325 3.77141 35.3574 3.77141 34.2857C3.77141 33.2141 4.26206 32.139 5.26002 31.1008C6.26131 30.0592 7.74374 29.0892 9.62961 28.2595C13.3994 26.6008 18.6563 25.5572 24.5 25.5572C30.3437 25.5572 35.6006 26.6008 39.3704 28.2595C41.2562 29.0892 42.7387 30.0592 43.7399 31.1008C44.7379 32.139 45.2286 33.2141 45.2286 34.2857Z" fill="#F5F5F7" stroke="#2C3038" stroke-width="1.4"/>
<path d="M46.2857 29.5713C46.2857 30.496 45.7744 31.4409 44.7075 32.3625C43.6421 33.2829 42.0712 34.1345 40.0867 34.8596C36.1218 36.3083 30.6111 37.2142 24.4999 37.2142C18.3888 37.2142 12.8781 36.3083 8.91316 34.8596C6.92868 34.1345 5.35784 33.2829 4.29242 32.3625C3.22554 31.4409 2.71423 30.496 2.71423 29.5713C2.71423 28.6466 3.22554 27.7018 4.29242 26.7801C5.35784 25.8597 6.92868 25.0082 8.91316 24.2831C12.8781 22.8344 18.3888 21.9285 24.4999 21.9285C30.6111 21.9285 36.1218 22.8344 40.0867 24.2831C42.0712 25.0082 43.6421 25.8597 44.7075 26.7801C45.7744 27.7018 46.2857 28.6466 46.2857 29.5713Z" fill="#2C3038" stroke="#F5F5F7"/>
<mask id="path-3-inside-1_415_270" fill="white">
<path fill-rule="evenodd" clip-rule="evenodd" d="M47.6428 26.1429V20.1585L47.6429 20.1428L47.6428 20.1272V19.7143H47.6171C47.0419 14.9427 36.9121 11.1428 24.5 11.1428C12.088 11.1428 1.95809 14.9427 1.38292 19.7143H1.35712V26.1429V26.5714H1.38862C2.02202 30.8694 12.1271 34.2857 24.5 34.2857C36.8728 34.2857 46.9779 30.8694 47.6113 26.5714H47.6428V26.1429Z"/>
</mask>
<path fill-rule="evenodd" clip-rule="evenodd" d="M47.6428 26.1429V20.1585L47.6429 20.1428L47.6428 20.1272V19.7143H47.6171C47.0419 14.9427 36.9121 11.1428 24.5 11.1428C12.088 11.1428 1.95809 14.9427 1.38292 19.7143H1.35712V26.1429V26.5714H1.38862C2.02202 30.8694 12.1271 34.2857 24.5 34.2857C36.8728 34.2857 46.9779 30.8694 47.6113 26.5714H47.6428V26.1429Z" fill="#F5F5F7"/>
<path d="M47.6428 20.1585L46.2428 20.1554V20.1585H47.6428ZM47.6429 20.1428L49.0429 20.1459L49.0429 20.1398L47.6429 20.1428ZM47.6428 20.1272H46.2428L46.2428 20.1302L47.6428 20.1272ZM47.6428 19.7143H49.0428V18.3143H47.6428V19.7143ZM47.6171 19.7143L46.2272 19.8818L46.3757 21.1143H47.6171V19.7143ZM1.38292 19.7143V21.1143H2.6243L2.77286 19.8818L1.38292 19.7143ZM1.35712 19.7143V18.3143H-0.0428833V19.7143H1.35712ZM1.35712 26.5714H-0.0428833V27.9714H1.35712V26.5714ZM1.38862 26.5714L2.77366 26.3673L2.59742 25.1714H1.38862V26.5714ZM47.6113 26.5714V25.1714H46.4025L46.2263 26.3673L47.6113 26.5714ZM47.6428 26.5714V27.9714H49.0428V26.5714H47.6428ZM46.2428 20.1585V26.1429H49.0428V20.1585H46.2428ZM46.2429 20.1398L46.2428 20.1554L49.0428 20.1616L49.0429 20.1459L46.2429 20.1398ZM46.2428 20.1302L46.2429 20.1459L49.0429 20.1398L49.0428 20.1241L46.2428 20.1302ZM46.2428 19.7143V20.1272H49.0428V19.7143H46.2428ZM47.6171 21.1143H47.6428V18.3143H47.6171V21.1143ZM24.5 12.5428C30.5797 12.5428 36.0433 13.4756 40.0091 14.9513C41.9951 15.6903 43.5458 16.5434 44.6081 17.4345C45.6769 18.3312 46.1412 19.1686 46.2272 19.8818L49.007 19.5467C48.8054 17.8742 47.7878 16.4472 46.4076 15.2894C45.0209 14.1261 43.1555 13.1345 40.9856 12.3271C36.6398 10.71 30.8324 9.74282 24.5 9.74282V12.5428ZM2.77286 19.8818C2.85884 19.1686 3.32311 18.3312 4.39196 17.4345C5.45419 16.5434 7.00487 15.6903 8.99088 14.9513C12.9567 13.4756 18.4204 12.5428 24.5 12.5428V9.74282C18.1676 9.74282 12.3603 10.71 8.0144 12.3271C5.84454 13.1345 3.97916 14.1261 2.59239 15.2894C1.21224 16.4472 0.194597 17.8742 -0.00701416 19.5467L2.77286 19.8818ZM1.35712 21.1143H1.38292V18.3143H1.35712V21.1143ZM2.75712 26.1429V19.7143H-0.0428833V26.1429H2.75712ZM2.75712 26.5714V26.1429H-0.0428833V26.5714H2.75712ZM1.38862 25.1714H1.35712V27.9714H1.38862V25.1714ZM24.5 32.8857C18.4267 32.8857 12.9634 32.0454 8.98682 30.7129C6.99421 30.0451 5.4367 29.2743 4.36843 28.471C3.28254 27.6545 2.85593 26.9255 2.77366 26.3673L0.00357997 26.7755C0.238012 28.3663 1.31206 29.6761 2.68567 30.709C4.07689 31.755 5.93773 32.6441 8.09717 33.3678C12.4247 34.8179 18.2003 35.6857 24.5 35.6857V32.8857ZM46.2263 26.3673C46.144 26.9255 45.7174 27.6545 44.6315 28.471C43.5632 29.2743 42.0057 30.0451 40.0131 30.7129C36.0365 32.0454 30.5732 32.8857 24.5 32.8857V35.6857C30.7996 35.6857 36.5753 34.8179 40.9028 33.3678C43.0622 32.6441 44.9231 31.755 46.3143 30.709C47.6879 29.6761 48.7619 28.3663 48.9964 26.7755L46.2263 26.3673ZM47.6428 25.1714H47.6113V27.9714H47.6428V25.1714ZM46.2428 26.1429V26.5714H49.0428V26.1429H46.2428Z" fill="#F5F5F7" mask="url(#path-3-inside-1_415_270)"/>
<path d="M36.7571 15.8571C36.7571 16.0988 36.5913 16.4495 35.9996 16.8691C35.4236 17.2777 34.5511 17.6702 33.419 18.0099C31.1623 18.6869 28.0088 19.1143 24.5 19.1143C20.9912 19.1143 17.8377 18.6869 15.581 18.0099C14.4489 17.6702 13.5764 17.2777 13.0003 16.8691C12.4087 16.4495 12.2429 16.0988 12.2429 15.8571C12.2429 15.6155 12.4087 15.2648 13.0003 14.8452C13.5764 14.4366 14.4489 14.0441 15.581 13.7044C17.8377 13.0274 20.9912 12.6 24.5 12.6C28.0088 12.6 31.1623 13.0274 33.419 13.7044C34.5511 14.0441 35.4236 14.4366 35.9996 14.8452C36.5913 15.2648 36.7571 15.6155 36.7571 15.8571Z" fill="#2C3038" stroke="#2C3038" stroke-width="1.2"/>
<path fill-rule="evenodd" clip-rule="evenodd" d="M28.7857 4.28564H20.2143V16.2856C20.2143 16.2856 20.2143 16.2856 20.2143 16.2856C20.2144 16.759 22.1331 17.1428 24.5 17.1428C26.8669 17.1428 28.7856 16.759 28.7857 16.2856C28.7857 16.2856 28.7857 16.2856 28.7857 16.2856V4.28564Z" fill="#F5F5F7"/>
<line x1="24.5" y1="19.5" x2="24.5" y2="25.5" stroke="#2C3038" stroke-linecap="round"/>
<path d="M16 16L11.9108 17.6357C11.3363 17.8655 10.9005 18.3483 10.7305 18.9432L10 21.5" stroke="#2C3038" stroke-linecap="round"/>
<path d="M21.5 18L18.4373 19.5314C17.8503 19.8249 17.4446 20.3877 17.3518 21.0374L17 23.5" stroke="#2C3038" stroke-linecap="round"/>
<path d="M28 18L31.0627 19.5314C31.6497 19.8249 32.0554 20.3877 32.1482 21.0374L32.5 23.5" stroke="#2C3038" stroke-linecap="round"/>
<path d="M33 16L37.0892 17.6357C37.6637 17.8655 38.0995 18.3483 38.2695 18.9432L39 21.5" stroke="#2C3038" stroke-linecap="round"/>
<path d="M28.5 4.5V4.50003C28.5 4.50048 28.5 4.50261 28.4985 4.50765C28.4968 4.51322 28.4926 4.52423 28.4825 4.54072C28.4612 4.57529 28.418 4.62726 28.3369 4.69116C28.1718 4.82127 27.9019 4.9603 27.5239 5.08632C26.773 5.33661 25.7039 5.5 24.5 5.5C23.2961 5.5 22.227 5.33661 21.4761 5.08632C21.0981 4.9603 20.8282 4.82127 20.6631 4.69116C20.582 4.62726 20.5388 4.57529 20.5175 4.54072C20.5074 4.52423 20.5032 4.51322 20.5015 4.50765C20.5 4.50261 20.5 4.50048 20.5 4.50003L20.5 4.5L20.5 4.49997C20.5 4.49952 20.5 4.49739 20.5015 4.49235C20.5032 4.48678 20.5074 4.47577 20.5175 4.45928C20.5388 4.42471 20.582 4.37274 20.6631 4.30884C20.8282 4.17873 21.0981 4.0397 21.4761 3.91368C22.227 3.66339 23.2961 3.5 24.5 3.5C25.7039 3.5 26.773 3.66339 27.5239 3.91368C27.9019 4.0397 28.1718 4.17873 28.3369 4.30884C28.418 4.37274 28.4612 4.42471 28.4825 4.45928C28.4926 4.47577 28.4968 4.48678 28.4985 4.49235C28.5 4.49753 28.5 4.49964 28.5 4.5Z" fill="#202020" stroke="#F5F5F7"/>
</svg>
