<svg width="56" height="48" viewBox="0 0 56 48" fill="none" xmlns="http://www.w3.org/2000/svg">
<path d="M28 13.3274C12.6401 13.3274 0.327637 17.9314 0.327637 23.7037C0.327637 29.4409 12.7416 34.0804 28 34.0804C43.2587 34.0804 55.6727 29.4253 55.6727 23.7037C55.6727 17.9821 43.2587 13.3274 28 13.3274Z" fill="#F5F5F7"/>
<path d="M38.9001 25.9018C38.9075 25.9493 38.9699 25.9948 39.0303 26.0164C39.0525 26.0238 39.0634 26.0387 39.0402 26.0892C38.8679 26.4585 38.7094 26.6714 38.4934 26.9923C38.2947 27.2888 38.0709 27.5202 37.7999 27.7427C37.3912 28.0809 36.8236 28.4491 36.3543 28.2016C36.1459 28.0934 36.0557 27.8017 36.0597 27.5655C36.0696 26.9014 36.3651 26.2196 36.9106 25.5496C37.5757 24.7308 38.3109 24.3061 38.7934 24.5382C39.2927 24.7763 39.1334 25.3543 38.9098 25.808C38.8924 25.8432 38.8925 25.8729 38.8999 25.9016L38.9001 25.9018ZM44.2571 20.7271C44.293 20.6637 44.2552 20.6174 44.1752 20.6174C43.7582 20.6174 43.2111 20.6184 42.7766 20.6184C42.6732 20.6184 42.6197 20.6307 42.5709 20.7273C42.4105 21.0345 40.4562 23.9635 40.0925 24.5323C40.0311 24.6189 39.9563 24.6067 39.9477 24.5075C39.9108 24.1697 39.619 23.7813 39.1594 23.5955C38.8091 23.4534 38.4666 23.4277 38.1106 23.475C37.4678 23.5613 36.8951 23.9004 36.3917 24.2828C35.6329 24.8597 34.9782 25.6074 34.133 26.1598C33.6717 26.4606 33.0399 26.7228 32.6171 26.3313C32.2345 25.9766 32.2777 25.1888 32.8631 24.5794C32.9248 24.5156 32.9988 24.5695 32.9871 24.6262C32.9319 24.9018 32.9995 25.1758 33.2089 25.368C33.4643 25.5969 33.8298 25.6228 34.1426 25.4699C34.5118 25.287 34.7287 24.9338 34.7919 24.533C34.8897 23.9111 34.4111 23.3627 33.8121 23.3187C33.3256 23.2845 32.859 23.4538 32.4043 23.8291C32.1763 24.0182 32.0469 24.1579 31.8497 24.4382C31.8017 24.5073 31.7279 24.5142 31.7302 24.4122C31.7524 23.6161 31.4235 23.1682 30.7653 23.1536C30.2544 23.1412 29.7086 23.4185 29.2832 23.7577C28.8168 24.1323 28.4091 24.6286 27.9719 25.095C27.9174 25.1524 27.8702 25.1497 27.8548 25.0383C27.8424 24.5108 27.709 23.9999 27.4649 23.6371C27.3785 23.5108 27.1967 23.4484 27.0439 23.5336C26.9734 23.5722 26.728 23.6851 26.5493 23.8289C26.4607 23.9019 26.426 24.0077 26.4654 24.1431C26.701 24.9312 26.6493 25.8272 26.3295 26.5839C26.0359 27.277 25.4653 27.9021 24.7947 28.1137C24.3529 28.2538 23.8937 28.1853 23.6095 27.7936C23.2192 27.2531 23.3768 26.313 23.9586 25.5324C24.4721 24.8451 25.2148 24.4085 25.9556 24.1273C26.0427 24.0937 26.0608 24.0377 26.036 23.9637C25.9959 23.8419 25.9316 23.6761 25.9056 23.6004C25.8375 23.4194 25.6473 23.3902 25.415 23.4155C24.8767 23.4781 24.3911 23.6625 23.9115 23.9193C22.6555 24.5919 22.0258 25.8936 21.7499 26.59C21.617 26.9245 21.5034 27.1332 21.3565 27.3182C21.1585 27.5671 20.91 27.7937 20.4555 28.1928C20.4144 28.2294 20.3837 28.3057 20.4184 28.3767C20.4646 28.4728 20.701 28.8066 20.7677 28.8364C20.8417 28.8727 20.9276 28.8215 20.962 28.7972C21.28 28.5816 21.6605 28.24 21.8467 28.0082C21.912 27.9287 21.9791 27.9622 22.0138 28.0827C22.1875 28.7026 22.6425 29.2088 23.2717 29.4206C24.4233 29.8089 25.6178 29.2468 26.5194 28.2682C27.0924 27.6461 27.2992 27.2461 27.5188 26.9742C27.8911 26.513 28.6253 25.4813 29.4998 24.8189C29.8205 24.5746 30.2 24.3882 30.3908 24.512C30.5441 24.6113 30.5936 24.8419 30.3478 25.2889C29.4561 26.9171 28.1443 28.83 27.9037 29.2939C27.8596 29.3744 27.8987 29.4377 27.9824 29.4377C28.449 29.4354 28.9115 29.4366 29.335 29.4366C29.4056 29.4341 29.437 29.4009 29.4724 29.3512C30.1567 28.2801 30.8006 27.2607 31.4909 26.2067C31.5295 26.1445 31.5651 26.1918 31.5666 26.219C31.5814 26.4636 31.6409 26.798 31.7861 27.0177C32.0471 27.4237 32.4168 27.5982 32.8269 27.6009C33.1532 27.6058 33.3182 27.555 33.6701 27.4236C33.9564 27.3174 34.1862 27.1781 34.3626 27.052C34.4656 26.9802 34.4837 27.1002 34.4812 27.1186C34.3228 27.9689 34.5183 28.9764 35.3634 29.3941C36.3748 29.8928 37.4858 29.1919 38.1252 28.5592C38.1878 28.4983 38.2548 28.5047 38.2613 28.6361C38.2761 28.8777 38.3841 29.1644 38.5839 29.365C39.1197 29.9027 40.2008 29.6896 41.2857 28.8498C41.9823 28.3122 42.7111 27.5526 43.3695 26.7482C43.3942 26.717 43.4121 26.667 43.3645 26.6163C43.2643 26.5113 43.1193 26.3913 43.0198 26.2988C42.9745 26.2602 42.908 26.2713 42.8698 26.3001C42.195 26.942 41.5875 27.6739 40.7095 28.2792C40.4134 28.4859 39.9415 28.6526 39.7295 28.3656C39.6468 28.2542 39.6563 28.1002 39.7369 27.898C39.9929 27.2597 44.0458 21.0892 44.2562 20.7253" fill="#202020"/>
<path d="M25.1888 21.4717C25.2061 21.5633 25.2418 21.5811 25.2834 21.5735C25.4898 21.5321 25.7157 21.3623 25.8495 21.1655C25.9713 20.987 26.0284 20.7295 25.9074 20.6263C25.7995 20.5335 25.6238 20.5597 25.4935 20.6748C25.2341 20.904 25.1553 21.2292 25.1887 21.4719L25.1888 21.4717ZM14.8591 29.4147C13.348 29.4246 12.0166 28.4913 11.8639 26.8747C11.779 25.9788 12.0322 25.1804 12.5391 24.5227C12.989 23.9365 13.7502 23.4496 14.3945 23.3307C14.6041 23.2923 14.8858 23.3158 15.0023 23.4554C15.185 23.668 15.1325 23.9016 14.9498 23.9948C14.4582 24.2458 13.8668 24.6754 13.5741 25.2621C13.3367 25.741 13.2888 26.318 13.6513 26.8678C14.2582 27.784 15.9498 27.8092 17.5226 26.348C17.9121 25.9904 18.2607 25.6468 18.615 25.2398C19.3078 24.4477 19.5382 24.1591 20.459 22.8818C20.4689 22.867 20.4739 22.8476 20.4689 22.8382C20.4615 22.8209 20.4491 22.8184 20.4217 22.816C19.8069 22.8333 19.271 23.0162 18.7501 23.4055C18.6001 23.5149 18.3841 23.4996 18.2896 23.3555C18.1844 23.1927 18.2599 22.9806 18.4329 22.8609C19.271 22.2781 20.1864 22.1724 21.1213 22.0146C21.1205 22.0146 21.1861 22.0171 21.2396 21.9468C21.6233 21.4543 21.9131 21.01 22.3222 20.5119C22.7344 20.0065 23.2669 19.5425 23.6737 19.1939C24.2415 18.7056 24.6057 18.5413 24.9758 18.3399C25.0733 18.2889 24.9634 18.2281 24.9337 18.2281C22.8674 17.8397 20.7196 17.3371 18.6675 18.0968C17.2463 18.6272 16.6235 19.7542 16.9231 20.5073C17.1362 21.0415 17.8387 21.1284 18.4965 20.8065C19.0428 20.5388 19.5484 20.1074 19.9068 19.5521C20.1073 19.2437 20.5298 19.4662 20.3015 20.0017C19.701 21.4131 18.5538 22.5327 17.1564 22.58C15.9671 22.6186 15.1998 21.7437 15.2023 20.6643C15.2072 18.5354 17.5772 17.133 20.068 16.9233C23.0676 16.6754 25.9087 17.4745 28.887 17.8357C31.1689 18.112 33.3567 18.1178 35.6504 17.5909C35.9215 17.532 36.1117 17.705 36.0941 17.9789C36.0718 18.3747 35.7651 18.756 35.0097 19.168C34.1505 19.6392 33.2518 19.7821 32.3131 19.7898C30.0433 19.8096 27.9289 18.9239 25.741 18.4485C25.7434 18.5443 25.7687 18.6584 25.6885 18.7189C24.4766 19.6128 23.3811 20.5206 22.6474 21.7956C22.6226 21.825 22.635 21.853 22.6788 21.8501C23.3158 21.8161 23.8887 21.7998 24.4834 21.7523C24.5874 21.7424 24.5913 21.7176 24.5821 21.6419C24.5294 21.2024 24.6579 20.7012 25.0445 20.3565C25.4401 20.0018 25.9355 19.9614 26.2639 20.2169C26.6373 20.5079 26.6042 21.0311 26.4001 21.4235C26.1921 21.8216 25.8488 22.0346 25.5192 22.138C25.5192 22.138 25.4499 22.1528 25.4603 22.2157C25.4727 22.3162 25.9223 22.565 25.9607 22.6313C25.9978 22.6944 25.978 22.7922 25.9105 22.8672C25.8629 22.9217 25.7884 22.9727 25.6931 22.9709C25.6162 22.9694 25.5694 22.9427 25.4709 22.8895C25.2694 22.7803 25.0176 22.6009 24.8496 22.3893C24.7924 22.3177 24.7632 22.3163 24.6204 22.3242C23.9768 22.3613 22.9734 22.4584 22.2935 22.5433C22.1287 22.5631 22.1044 22.5945 22.0705 22.6517C20.9865 24.4391 19.8291 26.3667 18.5584 27.6573C17.1954 29.041 16.0624 29.4054 14.8597 29.4148" fill="#202020"/>
<path d="M27.9993 15.0242C13.8688 15.0242 2.41485 18.929 2.41485 23.7071C2.41485 28.4855 13.8688 32.3906 27.9993 32.3906C42.1297 32.3906 53.5829 28.4855 53.5829 23.7071C53.5829 18.929 42.1297 15.0242 27.9993 15.0242ZM27.9993 33.1775C13.3544 33.1775 1.48248 28.9375 1.48248 23.7071C1.48248 18.4758 13.3544 14.2366 27.9993 14.2366C42.643 14.2366 54.5141 18.4758 54.5141 23.7071C54.5141 28.9375 42.643 33.1775 27.9993 33.1775Z" fill="#202020"/>
</svg>
