<svg width="40" height="40" viewBox="0 0 40 40" fill="none" xmlns="http://www.w3.org/2000/svg">
<path d="M0 33.6035H39.4224V40.0001H0V33.6035Z" fill="#F5F5F7"/>
<path d="M19.5468 0.613525H26.2074L29.4667 22.2725L32.7985 0.613525H39.3864V30.2067H34.9967V7.92005L31.2967 30.2067H27.5033L23.9331 7.92005V30.1633H19.5468V0.613525Z" fill="#F5F5F7"/>
<path d="M10.4179 10.0099H14.9194V7.91995C14.9194 5.87289 14.9194 0 7.38926 0C0.0253607 0 0.0253601 6.70709 0.0253601 7.91995C0.0253601 8.56603 0.0253601 22.1243 0.0253601 23.3011C0.0253601 27.7916 1.66791 30.7337 5.92366 30.7624C8.44006 30.7661 10.1943 29.1921 10.566 28.5929V30.1632L14.9194 30.2064V14.1717H7.83691V17.731H10.4179C10.4179 17.731 10.4179 21.8786 10.4179 22.4167C10.4179 24.7921 9.67438 26.409 7.46153 26.409C5.24496 26.409 4.54107 24.6871 4.54107 22.4167C4.54107 21.0089 4.54107 8.79708 4.54107 7.91995C4.54107 6.74301 4.54107 4.05733 7.46153 4.05733C10.4179 4.05733 10.4179 6.78637 10.4179 7.91995C10.4179 8.90527 10.4179 10.0099 10.4179 10.0099Z" fill="#F5F5F7"/>
</svg>
