<svg width="48" height="48" viewBox="0 0 48 48" fill="none" xmlns="http://www.w3.org/2000/svg">
<path d="M20.1317 0.710995C14.9712 1.63691 10.6454 3.91356 7.07856 7.61723C3.63312 11.1841 1.55376 15.2819 0.719037 20.1841C0.430557 21.854 0.400317 25.5116 0.643197 27.2723C2.06976 37.6081 10.3872 45.9256 20.7235 47.3526C22.2413 47.5648 25.7626 47.5648 27.2803 47.3526C35.4917 46.214 42.7013 40.6134 45.8126 32.9488C46.5413 31.1272 47.1177 29.0632 47.3606 27.2723C47.5728 25.7545 47.5728 22.2332 47.3606 20.7155C46.2225 12.459 40.5456 5.20379 32.8354 2.13803C31.0747 1.42476 29.0107 0.878513 27.2803 0.635635C25.6411 0.407635 21.6038 0.453236 20.1317 0.710995ZM28.2211 4.47515L29.329 4.74828L27.6595 7.96572C26.7336 9.74172 25.717 11.7145 25.3829 12.3673C24.6394 13.8395 24.5179 13.9763 24.0019 13.9763C23.5162 13.9763 23.3035 13.7488 22.6512 12.4585C22.3781 11.9123 21.3763 9.99948 20.4202 8.19372C19.464 6.40284 18.6898 4.88508 18.6898 4.82412C18.6898 4.74828 20.0405 4.42955 21.2698 4.20203C21.4824 4.17179 22.8787 4.15643 24.3811 4.17179C26.339 4.20203 27.4171 4.29324 28.2211 4.47515ZM18.9173 9.75708C20.7082 14.2648 20.9966 15.3121 20.6779 16.132C20.5867 16.3748 20.0102 16.9364 19.2816 17.4678C17.8853 18.4849 17.2632 18.6212 16.2614 18.0899C15.624 17.7409 8.38416 11.8364 8.38416 11.6392C8.35392 11.366 11.1614 8.66412 12.3605 7.79916C13.5446 6.94908 16.5648 5.32523 16.9594 5.32523C17.0654 5.32523 17.9155 7.25291 18.9173 9.75708ZM32.82 6.11436C33.7003 6.55452 34.9603 7.3134 35.6433 7.79916C36.827 8.66412 39.635 11.366 39.635 11.6545C39.635 11.8518 32.6078 17.6344 31.8638 18.0294C30.8621 18.5756 30.2851 18.4998 29.0712 17.6348C26.7187 15.9803 26.7187 15.9654 28.8586 10.562C29.7086 8.39148 30.5126 6.32748 30.6346 5.96316C30.756 5.6142 30.9379 5.32572 31.0445 5.32572C31.1506 5.32524 31.955 5.68956 32.82 6.11436ZM10.7818 16.7392C12.8006 18.8185 14.136 20.306 14.136 20.4731C14.136 20.6401 14.0146 20.9286 13.8629 21.1105C13.6354 21.399 12.9979 21.5507 8.89968 22.264C6.30432 22.7036 4.16448 23.0833 4.13424 23.0833C4.104 23.0833 4.11888 22.5371 4.17984 21.8843C4.30128 20.427 4.81728 18.2872 5.47008 16.6326C6.01632 15.2209 7.12464 13.1723 7.2912 13.2481C7.36704 13.2784 8.93039 14.8417 10.7818 16.7392ZM41.6232 14.6598C42.4881 16.2836 43.3233 18.7124 43.6569 20.5638C43.8542 21.7326 43.9603 23.0833 43.8542 23.0833C43.824 23.0833 41.699 22.7036 39.1037 22.264C34.9906 21.5507 34.3834 21.399 34.1405 21.1105C33.9888 20.9281 33.8674 20.6401 33.8674 20.4884C33.8674 20.1697 40.5307 13.203 40.7582 13.2788C40.8341 13.2937 41.2286 13.9158 41.6232 14.6598ZM24.5026 18.5603C24.9883 18.8032 25.2005 19.1521 25.2158 19.6379C25.2158 20.2148 24.6086 20.8067 24.0014 20.8067C23.0909 20.8067 22.4381 19.623 22.9843 18.9548C23.4101 18.4235 23.9717 18.2718 24.5026 18.5603ZM20.1163 22.3398C20.4197 22.5827 20.5109 22.78 20.5109 23.2355C20.5109 24.2977 19.4179 24.7988 18.5986 24.1004C18.0672 23.63 18.037 22.9316 18.5381 22.4008C18.9782 21.9299 19.5701 21.9145 20.1163 22.3398ZM24.7608 22.2635C26.4302 22.9312 26.3544 25.3595 24.6394 25.9667C22.3018 26.7712 20.9208 23.3411 23.1672 22.3086C23.9107 21.9601 24.0019 21.9601 24.7608 22.2635ZM29.4658 22.4003C29.9515 22.9163 29.9213 23.6598 29.3899 24.1C28.8893 24.5401 28.4035 24.5401 27.887 24.1302C27.5837 23.8873 27.4925 23.69 27.4925 23.2345C27.493 22.1574 28.7376 21.626 29.4658 22.4003ZM14.6525 24.4643C15.5026 24.6918 15.8515 25.1776 16.3373 26.7409C16.8533 28.4104 16.7472 29.0022 15.8213 29.7918C15.2141 30.3078 7.8072 35.0435 7.53408 35.0891C7.32144 35.1193 6.00096 32.7515 5.47008 31.3552C4.81728 29.6857 4.30128 27.5608 4.17984 26.1035C4.11936 25.4507 4.104 24.9044 4.13424 24.8891C4.31616 24.8435 12.239 24.3428 13.0738 24.3126C13.6205 24.3126 14.3184 24.3736 14.6525 24.4643ZM38.952 24.5252C41.2896 24.662 43.3685 24.8137 43.5662 24.844C43.9152 24.9198 43.9305 24.9352 43.824 26.1188C43.7025 27.6217 43.1563 29.8225 42.4881 31.4766C41.9265 32.8729 40.7121 35.0737 40.5149 35.0737C40.1808 35.0737 32.8046 30.232 32.1672 29.6099C31.2869 28.7449 31.2413 28.3196 31.8331 26.4985C32.2733 25.1478 32.6376 24.662 33.3206 24.4648C34.0042 24.267 34.2926 24.267 38.952 24.5252ZM22.2566 27.5608C22.8941 28.1833 22.7122 29.1088 21.8774 29.4582C21.0581 29.7923 20.208 29.1697 20.208 28.2289C20.208 27.7585 20.8757 27.1816 21.4224 27.1816C21.7099 27.1811 22.0286 27.3179 22.2566 27.5608ZM27.9029 27.5152C28.6162 28.1828 28.1002 29.6099 27.144 29.6099C26.6582 29.6099 26.0362 29.1092 25.9147 28.6235C25.8086 28.2136 26.1422 27.4091 26.4614 27.2876C26.9314 27.0904 27.5688 27.1964 27.9029 27.5152ZM17.9002 32.6454C18.0826 32.8273 18.2342 33.04 18.2342 33.146C18.2496 33.5257 16.9896 42.1465 16.8984 42.4048C16.8072 42.6476 16.6253 42.5867 15.1834 41.8734C13.1194 40.826 11.495 39.6572 9.81024 37.9576L8.45952 36.6068L12.7853 34.4819C15.1531 33.2977 17.2022 32.3416 17.3386 32.3416C17.4605 32.3416 17.7182 32.4784 17.9002 32.6454ZM35.1878 34.4665L39.5438 36.5915L38.1931 37.9576C37.4342 38.7164 36.2808 39.7182 35.628 40.204C34.2773 41.1601 31.2873 42.7388 31.1352 42.5564C31.0291 42.435 29.7691 33.7532 29.7691 33.2219C29.7691 32.9185 30.3456 32.3416 30.6341 32.3416C30.7406 32.3416 32.7897 33.2977 35.1878 34.4665ZM25.9752 33.0702C26.3093 33.2372 26.6126 33.5713 26.8253 34.0115C27.0984 34.5731 29.3146 42.6784 29.3146 43.118C29.3146 43.1939 28.7832 43.3763 28.1458 43.528C26.461 43.9225 21.5434 43.9225 19.8739 43.528C19.1453 43.3609 18.6902 43.179 18.6902 43.0576C18.6902 42.5108 21.0278 34.1934 21.301 33.7384C21.7565 33.0097 22.3176 32.8124 24.0024 32.7971C25.0795 32.7971 25.5802 32.858 25.9752 33.0702Z" fill="#F5F5F7"/>
</svg>
