<svg width="49" height="42" viewBox="0 0 49 42" fill="none" xmlns="http://www.w3.org/2000/svg">
<path d="M44.7044 31.9286C44.7044 33.0002 44.2138 34.0753 43.2158 35.1135C42.2145 36.1551 40.7321 37.1251 38.8462 37.9549C35.0764 39.6136 29.8195 40.6571 23.9758 40.6571C18.1322 40.6571 12.8753 39.6136 9.10547 37.9549C7.2196 37.1251 5.73717 36.1551 4.73588 35.1135C3.73792 34.0753 3.24727 33.0002 3.24727 31.9286C3.24727 30.857 3.73792 29.7818 4.73588 28.7437C5.73717 27.702 7.2196 26.7321 9.10547 25.9023C12.8753 24.2436 18.1322 23.2 23.9758 23.2C29.8195 23.2 35.0764 24.2436 38.8462 25.9023C40.7321 26.7321 42.2145 27.702 43.2158 28.7437C44.2138 29.7818 44.7044 30.857 44.7044 31.9286Z" fill="#F5F5F7" stroke="#2C3038" stroke-width="1.4"/>
<path d="M45.7616 27.2141C45.7616 28.1389 45.2502 29.0837 44.1834 30.0053C43.1179 30.9257 41.5471 31.7773 39.5626 32.5024C35.5977 33.9511 30.087 34.857 23.9758 34.857C17.8647 34.857 12.354 33.9511 8.38906 32.5024C6.40457 31.7773 4.83373 30.9257 3.76831 30.0053C2.70143 29.0837 2.19012 28.1389 2.19012 27.2141C2.19012 26.2894 2.70143 25.3446 3.76831 24.4229C4.83373 23.5026 6.40457 22.651 8.38906 21.9259C12.354 20.4772 17.8647 19.5713 23.9758 19.5713C30.087 19.5713 35.5977 20.4772 39.5626 21.9259C41.5471 22.651 43.1179 23.5026 44.1834 24.4229C45.2502 25.3446 45.7616 26.2894 45.7616 27.2141Z" fill="#202020" stroke="#F5F5F7"/>
<mask id="path-3-inside-1_415_221" fill="white">
<path fill-rule="evenodd" clip-rule="evenodd" d="M47.1187 23.7857V17.8013L47.1187 17.7856L47.1187 17.77V17.3571H47.093C46.5178 12.5855 36.3879 8.78564 23.9759 8.78564C11.5638 8.78564 1.43395 12.5855 0.858785 17.3571H0.832977V23.7857V24.2143H0.864481C1.49788 28.5122 11.603 31.9285 23.9758 31.9285C36.3487 31.9285 46.4538 28.5122 47.0872 24.2143H47.1187V23.7857Z"/>
</mask>
<path fill-rule="evenodd" clip-rule="evenodd" d="M47.1187 23.7857V17.8013L47.1187 17.7856L47.1187 17.77V17.3571H47.093C46.5178 12.5855 36.3879 8.78564 23.9759 8.78564C11.5638 8.78564 1.43395 12.5855 0.858785 17.3571H0.832977V23.7857V24.2143H0.864481C1.49788 28.5122 11.603 31.9285 23.9758 31.9285C36.3487 31.9285 46.4538 28.5122 47.0872 24.2143H47.1187V23.7857Z" fill="#F5F5F7"/>
<path d="M47.1188 17.8013L45.7188 17.7982V17.8013H47.1188ZM47.1188 17.7856L48.5188 17.7887L48.5188 17.7826L47.1188 17.7856ZM47.1188 17.77H45.7188L45.7188 17.773L47.1188 17.77ZM47.1188 17.3571H48.5188V15.9571H47.1188V17.3571ZM47.093 17.3571L45.7031 17.5247L45.8516 18.7571H47.093V17.3571ZM0.858855 17.3571V18.7571H2.10023L2.24879 17.5247L0.858855 17.3571ZM0.833047 17.3571V15.9571H-0.566953V17.3571H0.833047ZM0.833047 24.2143H-0.566953V25.6143H0.833047V24.2143ZM0.864551 24.2143L2.24959 24.0101L2.07335 22.8143H0.864551V24.2143ZM47.0873 24.2143V22.8143H45.8785L45.7022 24.0101L47.0873 24.2143ZM47.1188 24.2143V25.6143H48.5188V24.2143H47.1188ZM45.7188 17.8013V23.7857H48.5188V17.8013H45.7188ZM45.7188 17.7826L45.7188 17.7982L48.5188 17.8044L48.5188 17.7887L45.7188 17.7826ZM45.7188 17.773L45.7188 17.7887L48.5188 17.7826L48.5188 17.7669L45.7188 17.773ZM45.7188 17.3571V17.77H48.5188V17.3571H45.7188ZM47.093 18.7571H47.1188V15.9571H47.093V18.7571ZM23.9759 10.1856C30.0556 10.1856 35.5192 11.1184 39.4851 12.5941C41.4711 13.3331 43.0218 14.1863 44.084 15.0774C45.1528 15.974 45.6171 16.8114 45.7031 17.5247L48.483 17.1896C48.2814 15.517 47.2637 14.0901 45.8836 12.9322C44.4968 11.7689 42.6314 10.7773 40.4615 9.96993C36.1157 8.35281 30.3083 7.38564 23.9759 7.38564V10.1856ZM2.24879 17.5247C2.33477 16.8114 2.79904 15.974 3.86789 15.0774C4.93012 14.1863 6.4808 13.3331 8.46681 12.5941C12.4327 11.1184 17.8963 10.1856 23.9759 10.1856V7.38564C17.6435 7.38564 11.8362 8.35281 7.49033 9.96993C5.32047 10.7773 3.45509 11.7689 2.06832 12.9322C0.688172 14.0901 -0.329472 15.517 -0.531084 17.1896L2.24879 17.5247ZM0.833047 18.7571H0.858855V15.9571H0.833047V18.7571ZM2.23305 23.7857V17.3571H-0.566953V23.7857H2.23305ZM2.23305 24.2143V23.7857H-0.566953V24.2143H2.23305ZM0.864551 22.8143H0.833047V25.6143H0.864551V22.8143ZM23.9759 30.5285C17.9027 30.5285 12.4393 29.6882 8.46275 28.3557C6.47014 27.688 4.91263 26.9171 3.84436 26.1138C2.75847 25.2973 2.33186 24.5684 2.24959 24.0101L-0.52049 24.4184C-0.286057 26.0091 0.787994 27.3189 2.1616 28.3518C3.55282 29.3979 5.41366 30.287 7.5731 31.0106C11.9006 32.4607 17.6763 33.3285 23.9759 33.3285V30.5285ZM45.7022 24.0101C45.62 24.5684 45.1933 25.2973 44.1074 26.1138C43.0392 26.9171 41.4817 27.688 39.4891 28.3557C35.5125 29.6882 30.0491 30.5285 23.9759 30.5285V33.3285C30.2755 33.3285 36.0512 32.4607 40.3787 31.0106C42.5382 30.287 44.399 29.3979 45.7902 28.3518C47.1638 27.3189 48.2379 26.0091 48.4723 24.4184L45.7022 24.0101ZM47.1188 22.8143H47.0873V25.6143H47.1188V22.8143ZM45.7188 23.7857V24.2143H48.5188V23.7857H45.7188Z" fill="#F5F5F7" mask="url(#path-3-inside-1_415_221)"/>
<path d="M36.233 13.5C36.233 13.7416 36.0671 14.0923 35.4755 14.5119C34.8994 14.9205 34.0269 15.313 32.8948 15.6527C30.6381 16.3297 27.4847 16.7571 23.9758 16.7571C20.467 16.7571 17.3135 16.3297 15.0569 15.6527C13.9247 15.313 13.0522 14.9205 12.4762 14.5119C11.8845 14.0923 11.7187 13.7416 11.7187 13.5C11.7187 13.2583 11.8845 12.9076 12.4762 12.488C13.0522 12.0794 13.9247 11.6869 15.0569 11.3472C17.3135 10.6703 20.467 10.2428 23.9758 10.2428C27.4847 10.2428 30.6381 10.6703 32.8948 11.3472C34.0269 11.6869 34.8994 12.0794 35.4755 12.488C36.0671 12.9076 36.233 13.2583 36.233 13.5Z" fill="#202020" stroke="#2C3038" stroke-width="1.2"/>
<path fill-rule="evenodd" clip-rule="evenodd" d="M28.2615 1.92847H19.6901V13.9285H19.6902C19.6903 14.4018 21.609 14.7856 23.9759 14.7856C26.3428 14.7856 28.2616 14.4018 28.2616 13.9284C28.2616 13.9269 28.2616 13.9253 28.2615 13.9238V1.92847Z" fill="#F5F5F7"/>
<line x1="23.9758" y1="17.1428" x2="23.9758" y2="23.1428" stroke="#2C3038" stroke-linecap="round"/>
<path d="M15.4758 13.6428L11.3866 15.2785C10.8121 15.5083 10.3763 15.9911 10.2063 16.586L9.47583 19.1428" stroke="#202020" stroke-linecap="round"/>
<path d="M20.9758 15.6428L17.9131 17.1742C17.3261 17.4677 16.9204 18.0305 16.8276 18.6802L16.4758 21.1428" stroke="#202020" stroke-linecap="round"/>
<path d="M27.4758 15.6428L30.5386 17.1742C31.1256 17.4677 31.5312 18.0305 31.624 18.6802L31.9758 21.1428" stroke="#202020" stroke-linecap="round"/>
<path d="M32.4758 13.6428L36.565 15.2785C37.1395 15.5083 37.5753 15.9911 37.7453 16.586L38.4758 19.1428" stroke="#202020" stroke-linecap="round"/>
<path d="M27.9758 2.14282V2.14285C27.9758 2.1433 27.9758 2.14543 27.9743 2.15047C27.9726 2.15604 27.9684 2.16705 27.9583 2.18354C27.9371 2.21811 27.8938 2.27009 27.8127 2.33398C27.6476 2.46409 27.3777 2.60312 26.9997 2.72914C26.2488 2.97943 25.1797 3.14282 23.9758 3.14282C22.772 3.14282 21.7028 2.97943 20.952 2.72914C20.5739 2.60312 20.304 2.46409 20.1389 2.33398C20.0579 2.27009 20.0146 2.21811 19.9934 2.18354C19.9832 2.16705 19.9791 2.15604 19.9774 2.15047C19.9758 2.14543 19.9758 2.1433 19.9758 2.14285L19.9758 2.14282L19.9758 2.14279C19.9758 2.14235 19.9758 2.14022 19.9774 2.13518C19.9791 2.1296 19.9832 2.1186 19.9934 2.10211C20.0146 2.06754 20.0579 2.01556 20.1389 1.95166C20.304 1.82156 20.5739 1.68252 20.952 1.5565C21.7028 1.30621 22.772 1.14282 23.9758 1.14282C25.1797 1.14282 26.2488 1.30621 26.9997 1.5565C27.3777 1.68252 27.6476 1.82156 27.8127 1.95166C27.8938 2.01556 27.9371 2.06754 27.9583 2.10211C27.9684 2.1186 27.9726 2.1296 27.9743 2.13518C27.9759 2.14035 27.9758 2.14246 27.9758 2.14282Z" fill="#202020" stroke="#F5F5F7"/>
<rect x="0.5" y="4.64282" width="48" height="32" rx="1" fill="#F5F5F7"/>
<path d="M4.38418 18.227L6.92978 9.677H11.2739C12.7219 9.677 13.2393 10.3709 12.8261 11.7587L12.3317 13.4192C11.9185 14.807 10.9879 15.5009 9.53989 15.5009H7.05756L6.24592 18.227H4.38418ZM7.53717 13.89H9.94193C10.2005 13.89 10.3667 13.7661 10.4405 13.5183L10.9939 11.6596C11.0676 11.4118 10.9753 11.2879 10.7167 11.2879H8.31192L7.53717 13.89Z" fill="#2C3038"/>
<path d="M12.6288 18.227L15.1744 9.677H19.5185C20.9665 9.677 21.4839 10.3709 21.0707 11.7587L20.6501 13.1713C20.3427 14.2039 19.7501 14.8483 18.8722 15.1044L19.5142 17.8552L19.1837 18.227H17.5805L16.8886 15.2531H15.376L14.4906 18.227H12.6288ZM15.8556 13.6422H18.2603C18.5189 13.6422 18.6851 13.5183 18.7589 13.2705L19.2385 11.6596C19.3123 11.4118 19.2199 11.2879 18.9613 11.2879H16.5566L15.8556 13.6422Z" fill="#2C3038"/>
<path d="M21.5028 16.1452L22.8088 11.7587C23.222 10.3709 24.1526 9.677 25.6007 9.677H28.5484C29.9965 9.677 30.5139 10.3709 30.1007 11.7587L28.7947 16.1452C28.3815 17.533 27.4509 18.227 26.0028 18.227H23.0551C21.607 18.227 21.0896 17.533 21.5028 16.1452ZM23.3351 16.2444C23.2613 16.4922 23.3537 16.6161 23.6122 16.6161H26.4049C26.6634 16.6161 26.8296 16.4922 26.9034 16.2444L28.2684 11.6596C28.3422 11.4118 28.2498 11.2879 27.9913 11.2879H25.1986C24.9401 11.2879 24.7739 11.4118 24.7001 11.6596L23.3351 16.2444Z" fill="#2C3038"/>
<path d="M3.78052 30.6864L6.32612 22.1365H9.71346C12.1441 22.1365 13.0126 23.3013 12.319 25.6308L11.8542 27.1921C11.1606 29.5217 9.59847 30.6864 7.16786 30.6864H3.78052ZM6.12187 29.0756H7.7509C8.87139 29.0756 9.59151 28.5386 9.91125 27.4647L10.5384 25.3582C10.8582 24.2843 10.4578 23.7474 9.33729 23.7474H7.70826L6.12187 29.0756Z" fill="#2C3038"/>
<path d="M12.6817 30.6864L15.2273 22.1365H17.089L14.5434 30.6864H12.6817Z" fill="#2C3038"/>
<path d="M16.6588 30.6864L19.2044 22.1365H25.3068L24.8272 23.7474H20.5865L20.0701 25.4821H23.9228L23.4432 27.093H19.5904L19.0002 29.0756H23.2408L22.7612 30.6864H16.6588Z" fill="#2C3038"/>
<path d="M24.2655 30.0421L24.5533 29.0756H28.5612C28.8198 29.0756 28.986 28.9517 29.0597 28.7038L29.3254 27.8117C29.3967 27.5721 29.3295 27.4358 29.1239 27.4028L26.7504 26.9071C25.7751 26.7089 25.4559 26.0439 25.7929 24.9121L25.9995 24.2182C26.4127 22.8304 27.3433 22.1365 28.7913 22.1365H31.752L32.4264 22.7808L32.1386 23.7474H28.3893C28.1307 23.7474 27.9645 23.8713 27.8907 24.1191L27.6509 24.9245C27.5821 25.1558 27.6492 25.2921 27.8524 25.3334L30.2296 25.8167C31.2049 26.015 31.5241 26.6799 31.1871 27.8117L30.951 28.6047C30.5378 29.9925 29.6072 30.6864 28.1592 30.6864H24.9399L24.2655 30.0421Z" fill="#2C3038"/>
<path d="M32.0623 30.6864L34.6079 22.1365H40.7102L40.2306 23.7474H35.99L35.4735 25.4821H39.3263L38.8467 27.093H34.9939L34.4036 29.0756H38.6442L38.1646 30.6864H32.0623Z" fill="#2C3038"/>
<path d="M39.865 30.6864L42.4106 22.1365H44.2723L42.2063 29.0756H46.0591L45.5795 30.6864H39.865Z" fill="#2C3038"/>
</svg>
