<svg width="28" height="32" viewBox="0 0 28 32" fill="none" xmlns="http://www.w3.org/2000/svg">
<path d="M21.4 2C22.9812 2 24.4125 2.93125 25.0562 4.37563L27.6562 10.225C27.8813 10.7375 28 11.2875 28 11.85V26C28 28.2062 26.2062 30 24 30H4C1.79063 30 0 28.2062 0 26V11.85C0 11.2875 0.117437 10.7375 0.34475 10.225L2.94438 4.37563C3.58625 2.93063 5.01875 2 6.6 2H21.4ZM21.4 3H14.5V11H26.875C26.8375 10.8188 26.7937 10.75 26.7437 10.6313L24.1437 4.78188C23.6625 3.69813 22.5875 3 21.4 3ZM27 12H1V26C1 27.6562 2.34312 29 4 29H24C25.6562 29 27 27.6562 27 26V12ZM1.1225 11H13.5V3H6.6C5.41375 3 4.33938 3.69813 3.85812 4.78188L1.25875 10.6313C1.205 10.75 1.15937 10.8188 1.1225 11Z" fill="black"/>
</svg>
