<svg width="64" height="64" viewBox="0 0 64 64" fill="none" xmlns="http://www.w3.org/2000/svg">
<path d="M30.325 0.53223C31.4125 0.148355 32.5875 0.148355 33.675 0.53223L60.675 10.1125C62.6625 10.8212 64 12.7125 64 14.825V49.175C64 51.2875 62.6625 53.175 60.675 53.8875L33.675 63.4625C32.5875 63.85 31.4125 63.85 30.325 63.4625L3.3275 53.8875C1.3325 53.175 0 51.2875 0 49.175V14.825C0 12.7125 1.3325 10.8212 3.3275 10.1125L30.325 0.53223ZM33 2.41748C32.35 2.18623 31.65 2.18623 30.8875 2.41748L3.99625 11.9975C3.3825 12.215 2.87375 12.5125 2.52375 13.1375L32 24.925L61.475 13.1375C61.125 12.5125 60.6125 12.215 60 11.9975L33 2.41748ZM3.99625 52L31 61.5875C31 61.5875 30.8875 61.5875 31 61.5875V26.675L2 15.075V49.175C2 50.45 2.8 51.575 3.99625 52ZM33 61.5875C32.8875 61.5875 33 61.5875 33 61.5875L60 52C61.2 51.575 62 50.45 62 49.175V15.075L33 26.675V61.5875Z" fill="black"/>
</svg>
