<svg width="28" height="32" viewBox="0 0 28 32" fill="none" xmlns="http://www.w3.org/2000/svg">
<path d="M21.5 24C21.775 24 22 24.225 22 24.5C22 24.775 21.775 25 21.5 25H6.5C6.22375 25 6 24.775 6 24.5C6 24.225 6.22375 24 6.5 24H21.5ZM7.64375 7.64375C7.84375 7.45 8.15625 7.45 8.35625 7.64375L12.3562 11.6438C12.55 11.8438 12.55 12.1562 12.3562 12.3562C12.1562 12.55 11.8438 12.55 11.6438 12.3562L8.5 9.20625V19.5C8.5 19.775 8.275 20 8 20C7.725 20 7.5 19.775 7.5 19.5V9.20625L4.35375 12.3562C4.15813 12.55 3.84188 12.55 3.64625 12.3562C3.45125 12.1562 3.45125 11.8438 3.64625 11.6438L7.64375 7.64375ZM19.6437 7.64375C19.8438 7.45 20.1562 7.45 20.3563 7.64375L24.3563 11.6438C24.55 11.8438 24.55 12.1562 24.3563 12.3562C24.1562 12.55 23.8438 12.55 23.6437 12.3562L20.5 9.20625V19.5C20.5 19.775 20.275 20 20 20C19.725 20 19.5 19.775 19.5 19.5V9.20625L16.3563 12.3562C16.1562 12.55 15.8438 12.55 15.6438 12.3562C15.45 12.1562 15.45 11.8438 15.6438 11.6438L19.6437 7.64375ZM0 6C0 3.79063 1.79063 2 4 2H24C26.2062 2 28 3.79063 28 6V26C28 28.2062 26.2062 30 24 30H4C1.79063 30 0 28.2062 0 26V6ZM1 6V26C1 27.6562 2.34312 29 4 29H24C25.6562 29 27 27.6562 27 26V6C27 4.34312 25.6562 3 24 3H4C2.34312 3 1 4.34312 1 6Z" fill="black"/>
</svg>
