<svg width="55" height="64" viewBox="0 0 55 64" fill="none" xmlns="http://www.w3.org/2000/svg">
<path d="M54.3 46.4429C54.8362 46.7576 55.0208 47.4563 54.713 48.0029C54.5022 48.3689 54.1243 48.5743 53.7376 48.5743C53.5443 48.5743 53.3509 48.5252 53.1752 48.4203L28.5609 33.9774V62.8571C28.5609 63.4889 28.0555 64 27.4359 64C26.8163 64 26.311 63.4889 26.311 62.8571V33.9714L1.69676 48.4143C1.51148 48.5286 1.31719 48.5714 1.12433 48.5714C0.737618 48.5714 0.359761 48.366 0.148761 48C-0.15881 47.4531 0.025804 46.7544 0.561904 46.44L25.1858 32L0.561476 17.5571C0.0257614 17.2429 -0.158524 16.5429 0.148619 16C0.465047 15.4487 1.15505 15.2679 1.68719 15.5826L26.3015 30.0254V1.14286C26.3015 0.511143 26.8068 0 27.4263 0C28.0459 0 28.5513 0.511143 28.5513 1.14286V30.0286L53.1656 15.5857C53.7 15.2714 54.3858 15.4429 54.5858 16C54.8935 16.5469 54.7089 17.2456 54.1728 17.56L29.6715 32L54.3 46.4429Z" fill="black"/>
</svg>
